<svg xmlns="http://www.w3.org/2000/svg" width="22" height="22" viewBox="0 0 22 22">
  <g id="checkmark" transform="translate(-776 -56)">
    <path id="icon" d="M797.937,71.428a1.5,1.5,0,0,1-1.12-.5l-3.033-3.406a1.5,1.5,0,1,1,2.241-1.995l1.778,2,3.932-5.555a1.5,1.5,0,0,1,2.449,1.733l-5.022,7.095a1.5,1.5,0,0,1-1.141.631Z" transform="translate(-11.932 0.62)" fill="#00bfff"/>
    <path id="rim" d="M3,1A2,2,0,0,0,1,3V19a2,2,0,0,0,2,2H19a2,2,0,0,0,2-2V3a2,2,0,0,0-2-2H3M3,0H19a3,3,0,0,1,3,3V19a3,3,0,0,1-3,3H3a3,3,0,0,1-3-3V3A3,3,0,0,1,3,0Z" transform="translate(776 56)" fill="#00bfff"/>
  </g>
</svg>
